HIERARCHY
ROOT hip
{
	OFFSET 0.000000 0.000000 0.000000 
	CHANNELS 6 Xposition Yposition Zposition Xrotation Zrotation Yrotation
	JOINT abdomen
	{
		OFFSET 0.000000 3.402643 0.000000 
		CHANNELS 3 Xrotation Zrotation Yrotation
		JOINT chest
		{
			OFFSET 0.000000 8.438565 -0.680529 
			CHANNELS 3 Xrotation Zrotation Yrotation
			JOINT neck
			{
				OFFSET 0.000000 10.207942 -0.272212 
				CHANNELS 3 Xrotation Zrotation Yrotation
				JOINT head
				{
					OFFSET 0.000000 3.130431 0.000000 
					CHANNELS 3 Xrotation Zrotation Yrotation
					End Site
					{
						OFFSET 0.000000 3.130435 0.000000 
					}
				}
			}
			JOINT lCollar
			{
				OFFSET 3.470700 6.669187 -0.816635 
				CHANNELS 3 Yrotation Zrotation Xrotation
				JOINT lShldr
				{
					OFFSET 3.198488 0.000000 0.000000 
					CHANNELS 3 Zrotation Yrotation Xrotation
					JOINT lForeArm
					{
						OFFSET 10.139888 0.000000 0.000000 
						CHANNELS 3 Yrotation Zrotation Xrotation
						JOINT lHand
						{
							OFFSET 8.370511 0.000000 0.000000 
							CHANNELS 3 Zrotation Yrotation Xrotation
							End Site
							{
								OFFSET 4.083176 0.000000 0.000000 
							}
						}
					}
				}
			}
			JOINT rCollar
			{
				OFFSET -3.470700 6.669187 -0.816635 
				CHANNELS 3 Yrotation Zrotation Xrotation
				JOINT rShldr
				{
					OFFSET -3.198488 0.000000 0.000000 
					CHANNELS 3 Zrotation Yrotation Xrotation
					JOINT rForeArm
					{
						OFFSET -10.139888 0.000000 0.000000 
						CHANNELS 3 Yrotation Zrotation Xrotation
						JOINT rHand
						{
							OFFSET -8.370511 0.000000 0.000000 
							CHANNELS 3 Zrotation Yrotation Xrotation
							End Site
							{
								OFFSET -4.083176 0.000000 0.000000 
							}
						}
					}
				}
			}
		}
	}
	JOINT lThigh
	{
		OFFSET 5.308129 -1.633274 1.361059 
		CHANNELS 3 Xrotation Zrotation Yrotation
		JOINT lShin
		{
			OFFSET -2.041588 -20.007561 0.000000 
			CHANNELS 3 Xrotation Zrotation Yrotation
			JOINT lFoot
			{
				OFFSET 0.000000 -19.190928 -1.224953 
				CHANNELS 3 Xrotation Yrotation Zrotation
				End Site
				{
					OFFSET 0.000000 -2.449906 4.627600 
				}
			}
		}
	}
	JOINT rThigh
	{
		OFFSET -5.308129 -1.633274 1.361059 
		CHANNELS 3 Xrotation Zrotation Yrotation
		JOINT rShin
		{
			OFFSET 2.041588 -20.007561 0.000000 
			CHANNELS 3 Xrotation Zrotation Yrotation
			JOINT rFoot
			{
				OFFSET 0.000000 -19.190928 -1.224953 
				CHANNELS 3 Xrotation Yrotation Zrotation
				End Site
				{
					OFFSET 0.000000 -2.449906 4.627600 
				}
			}
		}
	}
}
MOTION
Frames: 16
Frame Time: 0.033333
-4.000494 47.669300 12.421685 4.724217 -15.266204 16.861204 0.000000 0.000000 0.000000 -1.092981 3.346069 -15.182230 -32.242683 1.708797 -10.570971 26.094431 9.619710 -7.318764 -3.521967 9.154817 6.304141 32.436066 -65.863518 -36.513084 -99.480980 -9.220323 -10.106042 17.868654 -16.746161 -11.145730 3.089181 -14.089146 8.026228 92.736748 -24.234056 64.186172 48.878986 -41.553192 131.596466 -36.933365 -8.332023 -9.731326 -31.913450 41.104515 29.993113 44.929680 -9.984703 -18.577829 10.076773 -0.461417 -12.808141 -8.803316 0.205670 -9.863668 24.106457 -0.457855 13.622787 -13.046174 0.799884 -5.319059 
-3.985305 48.011745 12.245269 4.361472 -13.403299 15.449552 0.000000 0.000000 0.000000 -0.390997 3.174422 -14.006285 -30.604639 2.762816 -10.793516 25.500967 7.737069 -6.907980 -3.521967 9.154817 6.304141 3.647629 -65.233398 -8.424289 -95.738876 -5.900401 -8.370652 16.814449 -16.230850 -10.853610 3.089181 -14.089146 8.026228 91.112190 -23.177216 63.476902 48.497059 -41.356152 130.966110 -38.789978 -5.595003 -10.539106 -28.446693 38.360474 29.896227 41.616238 -10.227886 -15.106618 8.265944 -0.228442 -11.328323 -8.205938 -1.208411 -10.384324 23.933493 -0.604983 13.647855 -11.431904 0.640101 -4.902910 
-4.005988 48.445034 12.076619 3.720651 -11.128161 13.899235 0.000000 0.000000 0.000000 1.927141 2.788613 -12.954746 -31.309317 3.300653 -10.740644 26.256063 6.318167 -6.396027 -3.521967 9.154817 6.304141 -19.612619 -58.649353 12.287178 -92.272881 -2.700050 -7.635110 13.412192 -13.975207 -9.905074 3.089181 -14.089146 8.026228 89.459885 -21.470354 62.573856 47.339737 -40.768597 127.723854 -39.334328 -5.390984 -10.645239 -24.550291 35.334259 29.448908 37.663399 -10.480903 -11.235104 8.191822 -0.219086 -11.521477 -6.990917 -2.723813 -11.091380 23.317829 -0.702597 11.801959 -9.417758 0.453747 -4.042296 
-4.076567 48.887955 11.876016 3.279780 -8.861488 12.188473 0.000000 0.000000 0.000000 3.796107 2.273879 -11.952801 -31.748232 3.860577 -10.473240 26.726784 4.877852 -5.743380 -3.521967 9.154817 6.304141 -36.538967 -49.923035 24.539288 -85.226120 1.134378 -4.646543 9.362174 -10.812702 -8.932132 3.089181 -14.089146 8.026228 87.694595 -19.633072 61.570904 45.901325 -40.071342 123.742630 -39.508129 -7.520385 -10.035508 -21.142351 32.153877 28.303047 33.277020 -10.528216 -6.930672 9.021907 -0.331480 -12.453632 -6.019956 -4.310196 -12.241673 22.763216 -0.498001 8.630789 -6.957795 0.238984 -2.757501 
-4.239882 49.267384 11.672005 2.900933 -6.714971 10.403111 0.000000 0.000000 0.000000 5.275361 2.063331 -10.670780 -31.156813 4.051773 -9.780229 25.844940 3.754486 -5.127917 -3.521967 9.154817 6.304141 -51.212223 -41.949646 30.555077 -72.947441 5.825708 0.166316 6.160176 -8.101597 -8.304573 3.089181 -14.089146 8.026228 86.445656 -17.409441 59.260437 43.556293 -38.570343 119.377647 -39.436974 -11.192052 -8.982341 -18.271761 29.238441 26.886669 29.196751 -10.347836 -2.399606 10.114179 -0.460400 -13.603498 -5.045755 -5.736229 -13.575349 21.935003 0.078506 4.848486 -5.543319 0.109543 -1.739770 
-4.481281 49.542107 11.460298 2.801590 -4.899541 8.301935 0.000000 0.000000 0.000000 6.436362 1.890109 -9.076951 -30.025549 4.282408 -9.028875 24.647753 3.397947 -4.451159 -3.521967 9.154817 6.304141 -64.506409 -36.703148 32.750973 -56.086185 12.024948 3.376830 4.970519 -6.649618 -8.141546 3.089181 -14.089146 8.026228 85.259483 -14.856768 56.144924 40.474453 -36.612804 111.348274 -39.196888 -11.187077 -8.976803 -15.819906 26.841518 25.649540 25.166327 -10.204823 2.654530 11.942821 -0.768996 -15.302352 -4.625972 -6.574497 -14.094899 20.932045 0.175696 1.855292 -5.547040 0.084349 -1.335799 
-4.639591 49.761257 11.282980 2.164637 -2.766336 6.315823 0.000000 0.000000 0.000000 9.206159 1.440152 -8.215433 -30.836897 4.499698 -8.610191 26.118891 2.659941 -3.871172 -3.521967 9.154817 6.304141 -76.059471 -34.875938 30.853582 -36.369080 20.025620 5.534673 1.983183 -3.722570 -7.781635 3.089181 -14.089146 8.026228 84.614319 -10.387956 51.572704 35.865814 -33.179218 100.508293 -36.770859 -11.540732 -8.866602 -12.675517 24.106010 24.267693 20.989569 -10.029641 6.151125 13.399548 -1.037314 -16.115936 -3.612663 -8.101197 -15.032997 19.685905 0.322135 1.184558 -5.914878 0.104485 -1.498798 
-4.878779 49.903385 11.093225 2.009067 -1.373974 3.770553 0.000000 0.000000 0.000000 13.396615 0.938472 -7.813526 -31.424030 4.633458 -7.906216 26.788450 2.447433 -3.166595 -3.521967 9.154817 6.304141 -81.121819 -34.251869 22.489815 -22.630630 23.808359 6.769783 -0.480262 -0.754069 -7.630144 3.089181 -14.089146 8.026228 84.952400 -3.143585 45.037331 30.102587 -27.869120 89.670700 -30.883806 -11.070169 -8.989001 -10.273121 22.100315 22.673225 16.866886 -9.260020 10.063949 14.807137 -1.327983 -17.152157 -3.329287 -9.112341 -15.352949 18.139252 0.283345 3.355534 -5.767345 0.189392 -2.334111 
-5.135028 49.975044 10.949495 1.825382 -0.644211 1.806746 0.000000 0.000000 0.000000 18.120995 0.261560 -7.255917 -31.974495 4.726860 -7.329601 27.642967 2.029193 -2.579619 -3.521967 9.154817 6.304141 -79.593307 -31.399893 10.272317 -22.291891 19.445784 9.103916 -0.236737 1.653089 -7.815989 3.089181 -14.089146 8.026228 85.687363 5.117469 36.591679 24.246073 -21.295525 80.623367 -20.611549 -9.512545 -9.006060 -8.330515 20.791512 21.123405 13.354675 -8.091654 11.556691 15.117498 -1.385600 -17.313585 -3.115061 -9.631850 -15.546918 16.950455 0.332196 5.934148 -4.773787 0.216471 -2.815160 
-5.445981 49.981033 10.865546 1.589986 -0.332026 0.312495 0.000000 0.000000 0.000000 22.154390 -0.397852 -6.455261 -30.640436 4.926783 -6.743295 27.265915 1.620045 -2.061103 -3.521967 9.154817 6.304141 -78.500679 -27.920000 -0.989072 -23.311481 14.357124 10.651130 0.710338 1.696194 -7.915918 3.089181 -14.089146 8.026228 85.842125 13.251375 25.328512 18.133417 -13.861478 73.785011 -8.219752 -4.720291 -8.933420 -6.562713 20.053953 19.838812 10.665077 -7.047255 7.311332 14.021351 -1.125361 -15.890647 -2.832443 -9.540290 -15.419702 16.058107 0.381094 7.102072 -5.307006 0.272710 -3.326373 
-5.685842 49.944408 10.786736 1.534926 -0.146474 -0.673851 0.000000 0.000000 0.000000 25.442801 -0.427590 -5.664269 -29.082064 4.500119 -5.583672 26.385309 1.571745 -1.475126 -3.521967 9.154817 6.304141 -78.923187 -25.276985 -10.206039 -22.509434 10.919861 11.646675 0.056923 1.378023 -7.828413 3.089181 -14.089146 8.026228 84.701653 20.119499 12.232669 12.817587 -6.704398 74.944489 1.146090 -6.435272 -8.416123 -5.683846 19.408642 18.667170 9.648160 -6.118692 2.033486 11.918333 -0.716785 -13.835466 -2.773503 -9.351156 -15.234917 15.530537 0.378449 7.372522 -6.199399 0.347096 -3.695872 
-5.788205 49.861549 10.724422 1.419174 -0.126914 -1.425799 0.000000 0.000000 0.000000 28.231855 -0.223807 -4.843790 -28.919476 3.971848 -4.551732 26.430195 1.445098 -0.986507 -3.521967 9.154817 6.304141 -79.739113 -23.240568 -17.939451 -20.436567 7.686628 14.485991 -0.368740 0.393454 -7.727021 3.089181 -14.089146 8.026228 83.993225 24.199066 -1.233267 9.139853 -2.423929 75.450134 1.974438 -10.004754 -8.672163 -5.537200 18.992485 18.259779 11.397152 -5.807922 -3.059734 8.849376 -0.287852 -11.150933 -2.675423 -9.281654 -15.136661 15.167593 0.420622 7.674261 -7.077255 0.416388 -3.961657 
-5.777916 49.764252 10.666746 1.305752 -0.253812 -1.562528 0.000000 0.000000 0.000000 29.187881 -0.243479 -4.218795 -28.204779 3.768562 -4.325669 26.205042 0.947136 -0.947298 -3.521967 9.154817 6.304141 -81.086403 -21.327057 -21.687922 -17.653301 5.748266 17.205442 1.512209 0.891782 -7.947424 3.089181 -14.089146 8.026228 85.905441 25.405977 -14.362745 8.242321 -2.495108 76.732780 -0.426173 -13.755586 -8.966073 -4.960992 18.373701 17.978214 12.703289 -5.631870 -5.680075 5.911034 -0.023897 -7.843059 -3.173679 -9.321491 -15.060280 16.303331 0.381320 7.910896 -7.472905 0.362507 -3.711575 
-5.691618 49.709545 10.568967 0.848866 -0.380753 -1.357457 0.000000 0.000000 0.000000 30.083288 -0.233899 -3.652393 -29.306501 3.428132 -4.235534 26.952026 0.595604 -1.044967 -3.521967 9.154817 6.304141 -82.280846 -20.066071 -24.340561 -14.666767 4.600915 18.825783 2.035049 1.164782 -8.009546 3.089181 -14.089146 8.026228 89.304298 26.286392 -22.535021 8.752966 -4.817469 70.326843 -3.743920 -15.269516 -8.960110 -3.643144 17.919182 18.330851 12.482900 -5.965238 -4.834779 4.266199 0.082414 -6.171679 -3.173358 -9.408071 -15.142622 17.147415 0.341749 8.096023 -7.658153 0.360457 -3.585694 
-5.595153 49.817501 10.379664 0.275608 -0.693257 -0.986492 0.000000 0.000000 0.000000 30.740686 -0.419535 -2.461015 -28.900064 3.368333 -4.538897 26.353884 0.966522 -1.367322 -3.521967 9.154817 6.304141 -83.419434 -19.441841 -26.039017 -12.898808 4.489476 22.202868 0.857672 0.285834 -7.848126 3.089181 -14.089146 8.026228 91.900711 26.918890 -23.836647 9.205157 -6.092366 61.585461 -5.115870 -15.265697 -8.901980 -2.529786 17.734701 18.253096 10.645766 -5.922812 -2.845661 4.471067 0.081699 -7.021949 -2.626875 -9.110202 -14.942603 16.574322 0.193367 8.278329 -6.087543 0.316544 -3.420504 
-5.464855 49.941967 10.073792 0.210022 -0.966784 -0.293092 0.000000 0.000000 0.000000 32.230450 -0.156202 -1.425802 -30.979860 3.569186 -5.215017 26.892757 0.722342 -1.689565 -3.521967 9.154817 6.304141 -84.498154 -19.570967 -26.792915 -12.550003 4.615223 24.526554 1.177414 -1.258357 -7.798685 3.089181 -14.089146 8.026228 92.233704 28.430529 -22.846292 9.387316 -6.023832 59.566109 -3.790040 -12.185740 -8.857008 -3.262336 17.574596 17.405909 10.437283 -5.327747 -1.565785 5.028028 0.074177 -8.942647 -2.265710 -8.893340 -14.926236 15.250135 0.358811 7.846086 -4.517592 0.267373 -3.364132 
